<mxfile host="app.diagrams.net" modified="2022-08-07T08:21:30.581Z" agent="5.0 (Windows NT 10.0; Win64; x64) AppleWebKit/537.36 (KHTML, like Gecko) Chrome/103.0.0.0 Safari/537.36" etag="dXyKZJbOJ4DLRASl7S-k" version="20.2.1" type="github">
  <diagram id="NRNoiGj3pOeY31aAoD1F" name="Page-1">
    <mxGraphModel dx="1111" dy="1039" grid="1" gridSize="10" guides="1" tooltips="1" connect="1" arrows="1" fold="1" page="1" pageScale="1" pageWidth="850" pageHeight="1100" math="0" shadow="0">
      <root>
        <mxCell id="0" />
        <mxCell id="1" parent="0" />
        <mxCell id="3YsxtUIkQh-qdpAwfnlr-9" style="edgeStyle=orthogonalEdgeStyle;rounded=0;orthogonalLoop=1;jettySize=auto;html=1;exitX=0;exitY=0;exitDx=120;exitDy=50;exitPerimeter=0;entryX=0;entryY=0.5;entryDx=0;entryDy=0;" edge="1" parent="1" source="3YsxtUIkQh-qdpAwfnlr-1" target="3YsxtUIkQh-qdpAwfnlr-6">
          <mxGeometry relative="1" as="geometry" />
        </mxCell>
        <mxCell id="3YsxtUIkQh-qdpAwfnlr-1" value="Data Acquistion" style="shape=cube;whiteSpace=wrap;html=1;boundedLbl=1;backgroundOutline=1;darkOpacity=0.05;darkOpacity2=0.1;" vertex="1" parent="1">
          <mxGeometry x="180" y="45" width="120" height="80" as="geometry" />
        </mxCell>
        <mxCell id="3YsxtUIkQh-qdpAwfnlr-18" style="edgeStyle=orthogonalEdgeStyle;rounded=0;orthogonalLoop=1;jettySize=auto;html=1;exitX=0.5;exitY=0;exitDx=0;exitDy=0;exitPerimeter=0;entryX=0;entryY=0;entryDx=0;entryDy=0;entryPerimeter=0;" edge="1" parent="1" source="3YsxtUIkQh-qdpAwfnlr-2" target="3YsxtUIkQh-qdpAwfnlr-1">
          <mxGeometry relative="1" as="geometry">
            <Array as="points">
              <mxPoint x="60" y="45" />
            </Array>
          </mxGeometry>
        </mxCell>
        <mxCell id="3YsxtUIkQh-qdpAwfnlr-26" style="edgeStyle=orthogonalEdgeStyle;rounded=0;orthogonalLoop=1;jettySize=auto;html=1;exitX=0.5;exitY=1;exitDx=0;exitDy=0;exitPerimeter=0;entryX=0;entryY=0;entryDx=0;entryDy=30;entryPerimeter=0;" edge="1" parent="1" source="3YsxtUIkQh-qdpAwfnlr-2" target="3YsxtUIkQh-qdpAwfnlr-25">
          <mxGeometry relative="1" as="geometry" />
        </mxCell>
        <mxCell id="3YsxtUIkQh-qdpAwfnlr-2" value="GTFS-Static" style="shape=cylinder3;whiteSpace=wrap;html=1;boundedLbl=1;backgroundOutline=1;size=15;" vertex="1" parent="1">
          <mxGeometry x="30" y="170" width="60" height="80" as="geometry" />
        </mxCell>
        <mxCell id="3YsxtUIkQh-qdpAwfnlr-19" style="edgeStyle=orthogonalEdgeStyle;rounded=0;orthogonalLoop=1;jettySize=auto;html=1;exitX=0.5;exitY=0;exitDx=0;exitDy=0;exitPerimeter=0;entryX=0;entryY=0;entryDx=0;entryDy=30;entryPerimeter=0;" edge="1" parent="1" source="3YsxtUIkQh-qdpAwfnlr-3" target="3YsxtUIkQh-qdpAwfnlr-1">
          <mxGeometry relative="1" as="geometry" />
        </mxCell>
        <mxCell id="3YsxtUIkQh-qdpAwfnlr-27" style="edgeStyle=orthogonalEdgeStyle;rounded=0;orthogonalLoop=1;jettySize=auto;html=1;exitX=0.5;exitY=1;exitDx=0;exitDy=0;exitPerimeter=0;entryX=0;entryY=0;entryDx=50;entryDy=0;entryPerimeter=0;" edge="1" parent="1" source="3YsxtUIkQh-qdpAwfnlr-3" target="3YsxtUIkQh-qdpAwfnlr-25">
          <mxGeometry relative="1" as="geometry" />
        </mxCell>
        <mxCell id="3YsxtUIkQh-qdpAwfnlr-3" value="GTFS-RL" style="shape=cylinder3;whiteSpace=wrap;html=1;boundedLbl=1;backgroundOutline=1;size=15;" vertex="1" parent="1">
          <mxGeometry x="120" y="170" width="60" height="80" as="geometry" />
        </mxCell>
        <mxCell id="3YsxtUIkQh-qdpAwfnlr-10" style="edgeStyle=orthogonalEdgeStyle;rounded=0;orthogonalLoop=1;jettySize=auto;html=1;exitX=1;exitY=0.5;exitDx=0;exitDy=0;entryX=0;entryY=0.5;entryDx=0;entryDy=0;entryPerimeter=0;" edge="1" parent="1" source="3YsxtUIkQh-qdpAwfnlr-6" target="3YsxtUIkQh-qdpAwfnlr-8">
          <mxGeometry relative="1" as="geometry" />
        </mxCell>
        <mxCell id="3YsxtUIkQh-qdpAwfnlr-6" value="Preprocessing" style="rounded=1;whiteSpace=wrap;html=1;absoluteArcSize=1;arcSize=14;strokeWidth=2;" vertex="1" parent="1">
          <mxGeometry x="360" y="150" width="80" height="80" as="geometry" />
        </mxCell>
        <mxCell id="3YsxtUIkQh-qdpAwfnlr-16" style="edgeStyle=orthogonalEdgeStyle;rounded=0;orthogonalLoop=1;jettySize=auto;html=1;exitX=0.145;exitY=1;exitDx=0;exitDy=-4.35;exitPerimeter=0;entryX=0.65;entryY=-0.025;entryDx=0;entryDy=0;entryPerimeter=0;" edge="1" parent="1" source="3YsxtUIkQh-qdpAwfnlr-8" target="3YsxtUIkQh-qdpAwfnlr-12">
          <mxGeometry relative="1" as="geometry" />
        </mxCell>
        <mxCell id="3YsxtUIkQh-qdpAwfnlr-17" style="edgeStyle=orthogonalEdgeStyle;rounded=0;orthogonalLoop=1;jettySize=auto;html=1;exitX=0.855;exitY=1;exitDx=0;exitDy=-4.35;exitPerimeter=0;entryX=0;entryY=0;entryDx=50;entryDy=0;entryPerimeter=0;" edge="1" parent="1" source="3YsxtUIkQh-qdpAwfnlr-8" target="3YsxtUIkQh-qdpAwfnlr-13">
          <mxGeometry relative="1" as="geometry" />
        </mxCell>
        <mxCell id="3YsxtUIkQh-qdpAwfnlr-8" value="Data Storage (Repository)" style="shape=cylinder3;whiteSpace=wrap;html=1;boundedLbl=1;backgroundOutline=1;size=15;" vertex="1" parent="1">
          <mxGeometry x="550" y="125" width="100" height="130" as="geometry" />
        </mxCell>
        <mxCell id="3YsxtUIkQh-qdpAwfnlr-21" style="edgeStyle=orthogonalEdgeStyle;rounded=0;orthogonalLoop=1;jettySize=auto;html=1;exitX=0;exitY=0;exitDx=70;exitDy=80;exitPerimeter=0;entryX=0.5;entryY=0;entryDx=0;entryDy=0;" edge="1" parent="1" source="3YsxtUIkQh-qdpAwfnlr-12" target="3YsxtUIkQh-qdpAwfnlr-30">
          <mxGeometry relative="1" as="geometry">
            <mxPoint x="560" y="430" as="targetPoint" />
            <Array as="points">
              <mxPoint x="400" y="400" />
              <mxPoint x="560" y="400" />
            </Array>
          </mxGeometry>
        </mxCell>
        <mxCell id="3YsxtUIkQh-qdpAwfnlr-12" value="Visualization" style="shape=cube;whiteSpace=wrap;html=1;boundedLbl=1;backgroundOutline=1;darkOpacity=0.05;darkOpacity2=0.1;" vertex="1" parent="1">
          <mxGeometry x="330" y="290" width="120" height="80" as="geometry" />
        </mxCell>
        <mxCell id="3YsxtUIkQh-qdpAwfnlr-24" style="edgeStyle=orthogonalEdgeStyle;rounded=0;orthogonalLoop=1;jettySize=auto;html=1;exitX=0;exitY=0;exitDx=0;exitDy=60;exitPerimeter=0;entryX=0.5;entryY=0;entryDx=0;entryDy=0;" edge="1" parent="1" source="3YsxtUIkQh-qdpAwfnlr-13" target="3YsxtUIkQh-qdpAwfnlr-30">
          <mxGeometry relative="1" as="geometry">
            <mxPoint x="560" y="430" as="targetPoint" />
            <Array as="points">
              <mxPoint x="720" y="400" />
              <mxPoint x="560" y="400" />
            </Array>
          </mxGeometry>
        </mxCell>
        <mxCell id="3YsxtUIkQh-qdpAwfnlr-13" value="Analysis" style="shape=cube;whiteSpace=wrap;html=1;boundedLbl=1;backgroundOutline=1;darkOpacity=0.05;darkOpacity2=0.1;" vertex="1" parent="1">
          <mxGeometry x="720" y="290" width="120" height="80" as="geometry" />
        </mxCell>
        <mxCell id="3YsxtUIkQh-qdpAwfnlr-23" style="edgeStyle=orthogonalEdgeStyle;rounded=0;orthogonalLoop=1;jettySize=auto;html=1;exitX=0.5;exitY=1;exitDx=0;exitDy=0;" edge="1" parent="1" target="3YsxtUIkQh-qdpAwfnlr-22">
          <mxGeometry relative="1" as="geometry">
            <mxPoint x="560" y="530" as="sourcePoint" />
          </mxGeometry>
        </mxCell>
        <mxCell id="3YsxtUIkQh-qdpAwfnlr-45" style="edgeStyle=orthogonalEdgeStyle;rounded=0;orthogonalLoop=1;jettySize=auto;html=1;exitX=0;exitY=0;exitDx=20;exitDy=80;exitPerimeter=0;entryX=0.5;entryY=0;entryDx=0;entryDy=0;" edge="1" parent="1" source="3YsxtUIkQh-qdpAwfnlr-22" target="3YsxtUIkQh-qdpAwfnlr-43">
          <mxGeometry relative="1" as="geometry" />
        </mxCell>
        <mxCell id="3YsxtUIkQh-qdpAwfnlr-46" style="edgeStyle=orthogonalEdgeStyle;rounded=0;orthogonalLoop=1;jettySize=auto;html=1;exitX=1;exitY=1;exitDx=0;exitDy=0;exitPerimeter=0;entryX=0.5;entryY=0;entryDx=0;entryDy=0;" edge="1" parent="1" source="3YsxtUIkQh-qdpAwfnlr-22" target="3YsxtUIkQh-qdpAwfnlr-44">
          <mxGeometry relative="1" as="geometry" />
        </mxCell>
        <mxCell id="3YsxtUIkQh-qdpAwfnlr-22" value="Traffic Congestion Profile" style="shape=cube;whiteSpace=wrap;html=1;boundedLbl=1;backgroundOutline=1;darkOpacity=0.05;darkOpacity2=0.1;" vertex="1" parent="1">
          <mxGeometry x="500" y="610" width="120" height="80" as="geometry" />
        </mxCell>
        <mxCell id="3YsxtUIkQh-qdpAwfnlr-32" style="edgeStyle=orthogonalEdgeStyle;rounded=0;orthogonalLoop=1;jettySize=auto;html=1;exitX=0;exitY=0;exitDx=70;exitDy=80;exitPerimeter=0;entryX=0.5;entryY=0;entryDx=0;entryDy=0;" edge="1" parent="1" source="3YsxtUIkQh-qdpAwfnlr-25" target="3YsxtUIkQh-qdpAwfnlr-31">
          <mxGeometry relative="1" as="geometry" />
        </mxCell>
        <mxCell id="3YsxtUIkQh-qdpAwfnlr-36" style="edgeStyle=orthogonalEdgeStyle;rounded=0;orthogonalLoop=1;jettySize=auto;html=1;exitX=0;exitY=0;exitDx=120;exitDy=50;exitPerimeter=0;" edge="1" parent="1" source="3YsxtUIkQh-qdpAwfnlr-25" target="3YsxtUIkQh-qdpAwfnlr-35">
          <mxGeometry relative="1" as="geometry" />
        </mxCell>
        <mxCell id="3YsxtUIkQh-qdpAwfnlr-25" value="OpenTripPlanner" style="shape=cube;whiteSpace=wrap;html=1;boundedLbl=1;backgroundOutline=1;darkOpacity=0.05;darkOpacity2=0.1;" vertex="1" parent="1">
          <mxGeometry x="100" y="290" width="120" height="80" as="geometry" />
        </mxCell>
        <mxCell id="3YsxtUIkQh-qdpAwfnlr-30" value="Ranking Algorithm (MCDA)" style="rounded=0;whiteSpace=wrap;html=1;" vertex="1" parent="1">
          <mxGeometry x="500" y="470" width="120" height="60" as="geometry" />
        </mxCell>
        <mxCell id="3YsxtUIkQh-qdpAwfnlr-34" style="edgeStyle=orthogonalEdgeStyle;rounded=0;orthogonalLoop=1;jettySize=auto;html=1;exitX=0.25;exitY=1;exitDx=0;exitDy=0;entryX=0.5;entryY=0;entryDx=0;entryDy=0;" edge="1" parent="1" source="3YsxtUIkQh-qdpAwfnlr-31" target="3YsxtUIkQh-qdpAwfnlr-33">
          <mxGeometry relative="1" as="geometry">
            <Array as="points">
              <mxPoint x="175" y="460" />
            </Array>
          </mxGeometry>
        </mxCell>
        <mxCell id="3YsxtUIkQh-qdpAwfnlr-31" value="Generate Isochrone" style="rounded=0;whiteSpace=wrap;html=1;" vertex="1" parent="1">
          <mxGeometry x="115" y="400" width="120" height="60" as="geometry" />
        </mxCell>
        <mxCell id="3YsxtUIkQh-qdpAwfnlr-40" style="edgeStyle=orthogonalEdgeStyle;rounded=0;orthogonalLoop=1;jettySize=auto;html=1;exitX=0.5;exitY=1;exitDx=0;exitDy=0;entryX=0;entryY=0;entryDx=0;entryDy=60;entryPerimeter=0;" edge="1" parent="1" source="3YsxtUIkQh-qdpAwfnlr-33" target="3YsxtUIkQh-qdpAwfnlr-22">
          <mxGeometry relative="1" as="geometry" />
        </mxCell>
        <mxCell id="3YsxtUIkQh-qdpAwfnlr-33" value="Travel Time Isochrone" style="shape=internalStorage;whiteSpace=wrap;html=1;dx=15;dy=15;rounded=1;arcSize=8;strokeWidth=2;" vertex="1" parent="1">
          <mxGeometry x="140" y="528" width="70" height="70" as="geometry" />
        </mxCell>
        <mxCell id="3YsxtUIkQh-qdpAwfnlr-39" style="edgeStyle=orthogonalEdgeStyle;rounded=0;orthogonalLoop=1;jettySize=auto;html=1;exitX=0.5;exitY=1;exitDx=0;exitDy=0;entryX=0.5;entryY=0;entryDx=0;entryDy=0;" edge="1" parent="1" source="3YsxtUIkQh-qdpAwfnlr-35" target="3YsxtUIkQh-qdpAwfnlr-37">
          <mxGeometry relative="1" as="geometry" />
        </mxCell>
        <mxCell id="3YsxtUIkQh-qdpAwfnlr-35" value="Generate Isochrone" style="rounded=0;whiteSpace=wrap;html=1;" vertex="1" parent="1">
          <mxGeometry x="265" y="400" width="120" height="60" as="geometry" />
        </mxCell>
        <mxCell id="3YsxtUIkQh-qdpAwfnlr-41" style="edgeStyle=orthogonalEdgeStyle;rounded=0;orthogonalLoop=1;jettySize=auto;html=1;exitX=0.5;exitY=1;exitDx=0;exitDy=0;entryX=0;entryY=0;entryDx=0;entryDy=30;entryPerimeter=0;" edge="1" parent="1" source="3YsxtUIkQh-qdpAwfnlr-37" target="3YsxtUIkQh-qdpAwfnlr-22">
          <mxGeometry relative="1" as="geometry" />
        </mxCell>
        <mxCell id="3YsxtUIkQh-qdpAwfnlr-37" value="Itinerary Plan" style="shape=internalStorage;whiteSpace=wrap;html=1;dx=15;dy=15;rounded=1;arcSize=8;strokeWidth=2;" vertex="1" parent="1">
          <mxGeometry x="290" y="528" width="70" height="70" as="geometry" />
        </mxCell>
        <mxCell id="3YsxtUIkQh-qdpAwfnlr-50" style="edgeStyle=orthogonalEdgeStyle;rounded=0;orthogonalLoop=1;jettySize=auto;html=1;exitX=0;exitY=0;exitDx=70;exitDy=80;exitPerimeter=0;entryX=0.5;entryY=0;entryDx=0;entryDy=0;entryPerimeter=0;" edge="1" parent="1" source="3YsxtUIkQh-qdpAwfnlr-42" target="3YsxtUIkQh-qdpAwfnlr-49">
          <mxGeometry relative="1" as="geometry" />
        </mxCell>
        <mxCell id="3YsxtUIkQh-qdpAwfnlr-42" value="Energy Consumption Modelling" style="shape=cube;whiteSpace=wrap;html=1;boundedLbl=1;backgroundOutline=1;darkOpacity=0.05;darkOpacity2=0.1;" vertex="1" parent="1">
          <mxGeometry x="480" y="840" width="120" height="80" as="geometry" />
        </mxCell>
        <mxCell id="3YsxtUIkQh-qdpAwfnlr-47" style="edgeStyle=orthogonalEdgeStyle;rounded=0;orthogonalLoop=1;jettySize=auto;html=1;exitX=0.5;exitY=1;exitDx=0;exitDy=0;entryX=0;entryY=0;entryDx=0;entryDy=0;entryPerimeter=0;" edge="1" parent="1" source="3YsxtUIkQh-qdpAwfnlr-43" target="3YsxtUIkQh-qdpAwfnlr-42">
          <mxGeometry relative="1" as="geometry" />
        </mxCell>
        <mxCell id="3YsxtUIkQh-qdpAwfnlr-43" value="Travel Time Matrix" style="shape=parallelogram;html=1;strokeWidth=2;perimeter=parallelogramPerimeter;whiteSpace=wrap;rounded=1;arcSize=12;size=0.23;" vertex="1" parent="1">
          <mxGeometry x="375" y="740" width="100" height="60" as="geometry" />
        </mxCell>
        <mxCell id="3YsxtUIkQh-qdpAwfnlr-48" style="edgeStyle=orthogonalEdgeStyle;rounded=0;orthogonalLoop=1;jettySize=auto;html=1;exitX=0;exitY=1;exitDx=0;exitDy=0;entryX=0;entryY=0;entryDx=100;entryDy=0;entryPerimeter=0;" edge="1" parent="1" source="3YsxtUIkQh-qdpAwfnlr-44" target="3YsxtUIkQh-qdpAwfnlr-42">
          <mxGeometry relative="1" as="geometry" />
        </mxCell>
        <mxCell id="3YsxtUIkQh-qdpAwfnlr-44" value="Speed Profile Table" style="shape=parallelogram;html=1;strokeWidth=2;perimeter=parallelogramPerimeter;whiteSpace=wrap;rounded=1;arcSize=12;size=0.23;" vertex="1" parent="1">
          <mxGeometry x="640" y="740" width="100" height="60" as="geometry" />
        </mxCell>
        <mxCell id="3YsxtUIkQh-qdpAwfnlr-49" value="Eenrgy Consumption Function" style="strokeWidth=2;html=1;shape=mxgraph.flowchart.start_1;whiteSpace=wrap;" vertex="1" parent="1">
          <mxGeometry x="500" y="980" width="100" height="60" as="geometry" />
        </mxCell>
      </root>
    </mxGraphModel>
  </diagram>
</mxfile>
